<svg width="40" height="40" viewBox="0 0 40 40" fill="none" xmlns="http://www.w3.org/2000/svg">
<g clip-path="url(#clip0_53_39)">
<path d="M40.05 19.9623C40.05 31.0248 31.075 39.9998 20.025 39.9998C8.9625 39.9998 0 31.0248 0 19.9623C0 8.89981 8.9625 -0.0751953 20.025 -0.0751953C31.075 -0.0751953 40.05 8.89981 40.05 19.9623ZM21.5625 28.7123C19.775 28.3623 18.7125 27.3248 16 23.2998C15.1 21.9498 15.1 21.9498 14.225 21.8873C12.9375 21.7998 13.0375 21.5748 13.075 24.4123C13.125 27.6373 13.0875 27.5623 14.95 27.8748C15.4375 27.9498 15.475 27.9873 15.475 28.2748C15.475 28.5998 15.475 28.5998 12.2 28.6248C9.125 28.6498 8.925 28.6373 8.8625 28.4498C8.7375 28.0873 8.925 27.9123 9.6 27.7873C10.3625 27.6498 10.7625 27.3373 10.8625 26.8123C10.9125 26.6123 10.925 23.9123 10.9 20.8123C10.8625 14.2998 10.9375 14.6873 9.7375 14.4248C8.9875 14.2623 8.75 14.0873 8.85 13.7873C8.925 13.5873 9.0875 13.5748 12.5 13.5123C17.575 13.4123 18.525 13.5748 19.875 14.7748C21.2875 16.0373 21.4875 17.9623 20.3625 19.5748C19.8625 20.2998 18.8625 21.0748 18.0875 21.3623C17.725 21.4998 17.425 21.6498 17.425 21.6998C17.425 21.8498 18.575 23.4873 19.2875 24.3623C21.1875 26.6748 22.2125 27.5748 23.275 27.8498C23.9375 28.0248 24.125 28.2123 23.9375 28.5373C23.7375 28.8748 22.7375 28.9498 21.5625 28.7123ZM16.775 20.4248C19.275 19.3998 19.4625 15.9623 17.0875 14.9498C16.475 14.6873 16.3125 14.6748 14.775 14.6748C13.1125 14.6748 13.1125 14.6748 13.0875 17.5623C13.0625 19.1498 13.075 20.5248 13.1125 20.5998C13.225 20.8623 16.0375 20.7248 16.775 20.4248ZM25.4875 16.8623C23.55 16.4998 22.9125 15.3123 23.0125 12.2623C23.0625 10.5748 23.2 10.1123 23.85 9.41231C25 8.17481 27.85 8.28731 28.9 9.61231C29.35 10.1748 29.3125 10.3498 28.6875 10.5373C28.2 10.6998 28.2 10.6998 27.75 10.2498C26.6875 9.22481 24.85 9.59981 24.525 10.9248C24.3625 11.5123 24.375 13.9998 24.5375 14.5623C24.975 16.1498 27.6125 16.1498 28.0625 14.5623C28.3375 13.5498 28.275 13.4748 27.0625 13.4123C26.475 13.3873 26.475 13.3873 26.475 12.8998C26.475 12.4248 26.475 12.4248 27.875 12.3873C29.6875 12.3498 29.6625 12.3248 29.575 13.6498C29.4625 15.3123 29.0125 16.1123 27.925 16.5873C27.2125 16.8873 26.2375 16.9998 25.4875 16.8623Z" fill="#04D4AC"/>
<path d="M21.5624 28.7124C19.7749 28.3624 18.7124 27.3249 15.9999 23.2999C15.0999 21.9499 15.0999 21.9499 14.2249 21.8874C12.9374 21.7999 13.0374 21.5749 13.0749 24.4124C13.1249 27.6374 13.0874 27.5624 14.9499 27.8749C15.4374 27.9499 15.4749 27.9874 15.4749 28.2749C15.4749 28.5999 15.4749 28.5999 12.1999 28.6249C9.12488 28.6499 8.92488 28.6374 8.86238 28.4499C8.73738 28.0874 8.92488 27.9124 9.59988 27.7874C10.3624 27.6499 10.7624 27.3374 10.8624 26.8124C10.9124 26.6124 10.9249 23.9124 10.8999 20.8124C10.8624 14.2999 10.9374 14.6874 9.73738 14.4249C8.98738 14.2624 8.74988 14.0874 8.84988 13.7874C8.92488 13.5874 9.08738 13.5749 12.4999 13.5124C17.5749 13.4124 18.5249 13.5749 19.8749 14.7749C21.2874 16.0374 21.4874 17.9624 20.3624 19.5749C19.8624 20.2999 18.8624 21.0749 18.0874 21.3624C17.7249 21.4999 17.4249 21.6499 17.4249 21.6999C17.4249 21.8499 18.5749 23.4874 19.2874 24.3624C21.1874 26.6749 22.2124 27.5749 23.2749 27.8499C23.9374 28.0249 24.1249 28.2124 23.9374 28.5374C23.7374 28.8749 22.7374 28.9499 21.5624 28.7124ZM16.7749 20.4249C19.2749 19.3999 19.4624 15.9624 17.0874 14.9499C16.4749 14.6874 16.3124 14.6749 14.7749 14.6749C13.1124 14.6749 13.1124 14.6749 13.0874 17.5624C13.0624 19.1499 13.0749 20.5249 13.1124 20.5999C13.2249 20.8624 16.0374 20.7249 16.7749 20.4249ZM25.4874 16.8624C23.5499 16.4999 22.9124 15.3124 23.0124 12.2624C23.0624 10.5749 23.1999 10.1124 23.8499 9.41236C24.9999 8.17486 27.8499 8.28736 28.8999 9.61236C29.3499 10.1749 29.3124 10.3499 28.6874 10.5374C28.1999 10.6999 28.1999 10.6999 27.7499 10.2499C26.6874 9.22486 24.8499 9.59986 24.5249 10.9249C24.3624 11.5124 24.3749 13.9999 24.5374 14.5624C24.9749 16.1499 27.6124 16.1499 28.0624 14.5624C28.3374 13.5499 28.2749 13.4749 27.0624 13.4124C26.4749 13.3874 26.4749 13.3874 26.4749 12.8999C26.4749 12.4249 26.4749 12.4249 27.8749 12.3874C29.6874 12.3499 29.6624 12.3249 29.5749 13.6499C29.4624 15.3124 29.0124 16.1124 27.9249 16.5874C27.2124 16.8874 26.2374 16.9999 25.4874 16.8624Z" fill="white"/>
</g>
<defs>
<clipPath id="clip0_53_39">
<rect width="40" height="40" fill="white"/>
</clipPath>
</defs>
</svg>
